# xmcd
#
# Track frame offsets:
#	150
#	13580
#	30323
#	40883
#	83175
#	97662
#	110210
#	124468
#	136571
#	153713
#	164558
#	175549
#	192910
#	208766
#	218609
#	223360
#	241107
#
# Disc length: 3425 seconds
#
# Revision: 1
# Processed by: cddbd v1.5PL3 Copyright (c) Steve Scherf et al.
# Submitted via: audiograbber 1.81.03
#
DISCID=e70d5f11
DTITLE=Darrel Young - Road Hard And Put Up Wet
DYEAR=1979
DGENRE=Nashville Country Club
TTITLE0=Aprils Fool
TTITLE1=I Can't get enough Of You
TTITLE2=Gone Too Far
TTITLE3=Eddie Rabbit Medley
TTITLE4=Poor Side Of Town
TTITLE5=Woman In Your Wallet
TTITLE6=Something In The Way(Instrumental)
TTITLE7=Too Much Of A Woman
TTITLE8=You Decorated My Life
TTITLE9=Happy Together
TTITLE10=That Old Song That We Made Love Too
TTITLE11=She Believes In me
TTITLE12=My Greatest Loss
TTITLE13=Good Ole Boys
TTITLE14=Black Mountain Rag
TTITLE15=The Other Woman
TTITLE16=Whiskey River
EXTD=
EXTT0=
EXTT1=
EXTT2=
EXTT3=
EXTT4=
EXTT5=
EXTT6=
EXTT7=
EXTT8=
EXTT9=
EXTT10=
EXTT11=
EXTT12=
EXTT13=
EXTT14=
EXTT15=
EXTT16=
PLAYORDER=
